<?xml version="1.0" encoding="UTF-8" standalone="no"?>
<!-- Created with Inkscape (http://www.inkscape.org/) -->

<svg
   xmlns:dc="http://purl.org/dc/elements/1.1/"
   xmlns:cc="http://creativecommons.org/ns#"
   xmlns:rdf="http://www.w3.org/1999/02/22-rdf-syntax-ns#"
   xmlns:svg="http://www.w3.org/2000/svg"
   xmlns="http://www.w3.org/2000/svg"
   xmlns:sodipodi="http://sodipodi.sourceforge.net/DTD/sodipodi-0.dtd"
   xmlns:inkscape="http://www.inkscape.org/namespaces/inkscape"
   width="100.52799"
   height="116.5731"
   viewBox="0 0 26.598031 30.843302"
   version="1.1"
   id="svg8"
   inkscape:version="0.92.1 r15371"
   sodipodi:docname="cup.svg">
  <defs
     id="defs2" />
  <sodipodi:namedview
     id="base"
     pagecolor="#ffffff"
     bordercolor="#666666"
     borderopacity="1.0"
     inkscape:pageopacity="0.0"
     inkscape:pageshadow="2"
     inkscape:zoom="2.8"
     inkscape:cx="126.2549"
     inkscape:cy="25.896286"
     inkscape:document-units="mm"
     inkscape:current-layer="layer1"
     showgrid="false"
     inkscape:window-width="1920"
     inkscape:window-height="1018"
     inkscape:window-x="-8"
     inkscape:window-y="-8"
     inkscape:window-maximized="1"
     units="px"
     fit-margin-top="0"
     fit-margin-left="0"
     fit-margin-right="0"
     fit-margin-bottom="0" />
  <metadata
     id="metadata5">
    <rdf:RDF>
      <cc:Work
         rdf:about="">
        <dc:format>image/svg+xml</dc:format>
        <dc:type
           rdf:resource="http://purl.org/dc/dcmitype/StillImage" />
        <dc:title></dc:title>
      </cc:Work>
    </rdf:RDF>
  </metadata>
  <g
     inkscape:label="Layer 1"
     inkscape:groupmode="layer"
     id="layer1"
     transform="translate(149.88076,-50.407889)">
    <g
       id="_x34_1._Cup_1_"
       transform="matrix(0.06890664,0,0,0.06890664,-152.00336,50.407889)">
      <g
         id="XMLID_89_">
        <g
           id="g3700">
          <g
             id="g3682">
            <path
               id="path3680"
               d="m 108.905,165.89 c -1.24,-6.81 -1.89,-13.84 -1.89,-21.01 l -0.21,-0.1 V 68.61 10 h 233.67 v 58.61 76.17 0.1 c 0,7.19 -0.65,14.23 -1.9,21.06 -8.53,46.82 -44.99,83.9 -91.48,93.33 -7.55,1.54 -15.35,2.34 -23.35,2.34 -7.96,0 -15.74,-0.8 -23.25,-2.32 -46.56,-9.4 -83.07,-46.52 -91.59,-93.4 z m 140.17,-28.92 25.28,-24.63 -34.93,-5.08 -15.62,-31.65 -15.62,31.65 -34.93,5.08 25.28,24.63 -5.97,34.79 31.24,-16.42 31.24,16.42 z"
               style="fill:#f2d59f"
               inkscape:connector-curvature="0" />
          </g>
          <g
             id="g3686">
            <polygon
               id="polygon3684"
               points="328.805,367.61 328.805,437.61 118.805,437.61 118.805,367.61 156.805,367.61 290.805,367.61 "
               style="fill:#e6b263" />
          </g>
          <g
             id="g3690">
            <polygon
               id="polygon3688"
               points="290.805,367.61 156.805,367.61 156.805,327.61 290.785,327.61 290.805,327.61 "
               style="fill:#f2d59f" />
          </g>
          <g
             id="g3694">
            <path
               id="path3692"
               d="m 290.785,327.61 h -133.98 c 30.88,-6.95 50.31,-37.42 43.69,-68.3 v -0.02 c 7.51,1.52 15.29,2.32 23.25,2.32 8,0 15.8,-0.8 23.35,-2.34 l 0.01,0.05 c -6.62,30.87 12.8,61.34 43.68,68.29 z"
               style="fill:#f2d59f"
               inkscape:connector-curvature="0" />
          </g>
          <g
             id="g3698">
            <polygon
               id="polygon3696"
               points="173.255,112.34 208.185,107.26 223.805,75.61 239.425,107.26 274.355,112.34 249.075,136.97 255.045,171.76 223.805,155.34 192.565,171.76 198.535,136.97 "
               style="fill:#ff7124" />
          </g>
        </g>
        <g
           id="g3750">
          <g
             id="g3704">
            <path
               id="path3702"
               d="m 223.745,271.61 c -8.487,0 -16.977,-0.847 -25.234,-2.519 -24.824,-5.012 -47.376,-17.268 -65.213,-35.442 -17.858,-18.195 -29.695,-41.008 -34.232,-65.972 -1.361,-7.472 -2.051,-15.144 -2.051,-22.798 0,-5.523 4.477,-10 10,-10 5.523,0 10,4.477 10,10 0,6.456 0.581,12.921 1.728,19.218 3.818,21.012 13.787,40.217 28.829,55.542 15.024,15.308 34.009,25.629 54.902,29.848 13.973,2.828 28.767,2.811 42.623,-0.016 20.873,-4.234 39.831,-14.555 54.835,-29.849 15.022,-15.313 24.983,-34.496 28.806,-55.476 1.153,-6.304 1.738,-12.784 1.738,-19.268 0,-5.523 4.477,-10 10,-10 5.523,0 10,4.477 10,10 0,7.688 -0.694,15.379 -2.063,22.86 -4.54,24.923 -16.368,47.71 -34.203,65.889 -17.813,18.157 -40.333,30.412 -65.126,35.441 -8.258,1.687 -16.787,2.542 -25.339,2.542 z"
               style="fill:#5e2a41"
               inkscape:connector-curvature="0" />
          </g>
          <g
             id="g3708">
            <path
               id="path3706"
               d="m 340.475,154.78 c -5.523,0 -10,-4.477 -10,-10 V 20 h -213.67 v 124.78 c 0,5.523 -4.477,10 -10,10 -5.523,0 -10,-4.477 -10,-10 V 10 c 0,-5.523 4.477,-10 10,-10 h 233.67 c 5.523,0 10,4.477 10,10 v 134.78 c 0,5.523 -4.477,10 -10,10 z"
               style="fill:#5e2a41"
               inkscape:connector-curvature="0" />
          </g>
          <g
             id="g3712">
            <path
               id="path3710"
               d="m 290.805,377.61 c -5.523,0 -10,-4.477 -10,-10 v -30 h -114 v 30 c 0,5.523 -4.477,10 -10,10 -5.523,0 -10,-4.477 -10,-10 v -40 c 0,-5.523 4.477,-10 10,-10 h 133.98 c 5.523,0 10.02,4.477 10.02,10 v 40 c 0,5.523 -4.477,10 -10,10 z"
               style="fill:#5e2a41"
               inkscape:connector-curvature="0" />
          </g>
          <g
             id="g3716">
            <path
               id="path3714"
               d="m 254.805,412.61 h -62 c -5.523,0 -10,-4.477 -10,-10 0,-5.523 4.477,-10 10,-10 h 62 c 5.523,0 10,4.477 10,10 0,5.523 -4.477,10 -10,10 z"
               style="fill:#5e2a41"
               inkscape:connector-curvature="0" />
          </g>
          <g
             id="g3720">
            <path
               id="path3718"
               d="m 328.805,447.61 h -210 c -5.523,0 -10,-4.477 -10,-10 v -70 c 0,-5.523 4.477,-10 10,-10 h 210 c 5.523,0 10,4.477 10,10 v 70 c 0,5.523 -4.477,10 -10,10 z m -200,-20 h 190 v -50 h -190 z"
               style="fill:#5e2a41"
               inkscape:connector-curvature="0" />
          </g>
          <g
             id="g3724">
            <path
               id="path3722"
               d="m 406.805,78.61 h -65 c -5.523,0 -10,-4.477 -10,-10 0,-5.523 4.477,-10 10,-10 h 65 c 5.523,0 10,4.477 10,10 0,5.523 -4.477,10 -10,10 z"
               style="fill:#5e2a41"
               inkscape:connector-curvature="0" />
          </g>
          <g
             id="g3728">
            <path
               id="path3726"
               d="m 338.575,175.943 c -4.09,0 -7.928,-2.528 -9.402,-6.596 -1.881,-5.192 0.802,-10.927 5.995,-12.809 36.867,-13.36 61.637,-48.696 61.637,-87.928 0,-5.523 4.477,-10 10,-10 5.523,0 10,4.477 10,10 0,47.621 -30.069,90.513 -74.823,106.732 -1.125,0.407 -2.275,0.601 -3.407,0.601 z"
               style="fill:#5e2a41"
               inkscape:connector-curvature="0" />
          </g>
          <g
             id="g3732">
            <path
               id="path3730"
               d="m 105.805,78.61 h -65 c -5.523,0 -10,-4.477 -10,-10 0,-5.523 4.477,-10 10,-10 h 65 c 5.523,0 10,4.477 10,10 0,5.523 -4.477,10 -10,10 z"
               style="fill:#5e2a41"
               inkscape:connector-curvature="0" />
          </g>
          <g
             id="g3736">
            <path
               id="path3734"
               d="m 109.027,175.942 c -1.211,0.001 -2.436,-0.22 -3.617,-0.681 -0.025,-0.01 -0.051,-0.019 -0.076,-0.029 -44.583,-16.293 -74.53,-59.121 -74.53,-106.622 0,-5.523 4.477,-10 10,-10 5.523,0 10,4.477 10,10 0,39.179 24.723,74.496 61.519,87.882 0.049,0.018 0.098,0.036 0.146,0.054 0.359,0.133 0.701,0.281 1.037,0.449 4.94,2.47 6.942,8.477 4.472,13.417 -1.751,3.504 -5.283,5.53 -8.951,5.53 z"
               style="fill:#5e2a41"
               inkscape:connector-curvature="0" />
          </g>
          <g
             id="g3740">
            <path
               id="path3738"
               d="m 255.044,181.76 c -1.591,0 -3.188,-0.379 -4.651,-1.148 l -26.588,-13.974 -26.588,13.974 c -3.369,1.771 -7.452,1.476 -10.531,-0.762 -3.079,-2.238 -4.621,-6.03 -3.977,-9.781 l 5.081,-29.606 -21.513,-20.959 c -2.727,-2.656 -3.708,-6.63 -2.533,-10.251 1.176,-3.621 4.305,-6.26 8.072,-6.808 l 29.728,-4.323 13.294,-26.937 c 1.685,-3.413 5.161,-5.574 8.967,-5.574 3.807,0 7.283,2.161 8.967,5.574 l 13.294,26.937 29.728,4.323 c 3.767,0.548 6.896,3.187 8.072,6.808 1.176,3.621 0.194,7.595 -2.533,10.251 l -21.513,20.959 5.081,29.606 c 0.644,3.751 -0.898,7.543 -3.977,9.781 -1.743,1.265 -3.806,1.91 -5.88,1.91 z m -31.239,-36.42 c 1.598,0 3.196,0.383 4.652,1.148 l 13.305,6.993 -2.543,-14.82 c -0.557,-3.245 0.52,-6.556 2.877,-8.854 l 10.765,-10.488 -14.876,-2.164 c -3.256,-0.474 -6.071,-2.52 -7.528,-5.47 l -6.653,-13.48 -6.653,13.48 c -1.457,2.951 -4.271,4.997 -7.528,5.47 l -14.876,2.164 10.765,10.488 c 2.358,2.298 3.434,5.609 2.877,8.854 l -2.543,14.82 13.305,-6.993 c 1.458,-0.765 3.056,-1.148 4.654,-1.148 z"
               style="fill:#5e2a41"
               inkscape:connector-curvature="0" />
          </g>
          <g
             id="g3744">
            <path
               id="path3742"
               d="m 290.794,337.612 c -0.728,0 -1.466,-0.08 -2.205,-0.246 -36.004,-8.104 -59.001,-44.055 -51.262,-80.143 1.158,-5.4 6.473,-8.835 11.874,-7.681 5.4,1.158 8.839,6.475 7.681,11.874 -5.45,25.413 10.744,50.731 36.098,56.438 5.388,1.212 8.773,6.564 7.56,11.952 -1.046,4.649 -5.173,7.806 -9.746,7.806 z"
               style="fill:#5e2a41"
               inkscape:connector-curvature="0" />
          </g>
          <g
             id="g3748">
            <path
               id="path3746"
               d="m 156.796,337.612 c -4.574,0 -8.7,-3.157 -9.747,-7.806 -1.213,-5.388 2.172,-10.739 7.56,-11.952 25.359,-5.707 41.557,-31.03 36.108,-56.448 -1.158,-5.4 2.282,-10.716 7.682,-11.874 5.401,-1.157 10.716,2.281 11.874,7.682 7.737,36.091 -15.263,72.047 -51.272,80.152 -0.739,0.166 -1.478,0.246 -2.205,0.246 z"
               style="fill:#5e2a41"
               inkscape:connector-curvature="0" />
          </g>
        </g>
      </g>
    </g>
  </g>
</svg>
